<svg xmlns="http://www.w3.org/2000/svg" viewBox="0 0 512 512">
  <path fill="#4285F4" d="M381.6 225.6c0-18.1-1.7-35.5-4.9-52.3H256v100.1h69.4c-3 16.5-11.5 30.4-24.8 39.7v65h83.8c49.1-45.1 77.4-111.5 77.4-190.5 0-13.1-1.1-25.8-3.1-38z"/>
  <path fill="#34A853" d="M256 480c68.3 0 125.5-22.7 167.3-61.9l-83.8-65c-22.7 15.3-51.9 24.3-83.5 24.3-64.1 0-118.6-43.2-138.1-100.4H34.7v67.9C76.4 437 160.4 480 256 480z"/>
  <path fill="#FBBC05" d="M117.9 303.6c-4.5-13.7-7.1-28.2-7.1-43.6s2.6-29.9 7.1-43.6V149.1H34.7c-15.9 32.3-25.3 69.1-25.3 108.9s9.4 76.6 25.3 108.9h83.2v-67.9z"/>
  <path fill="#EA4335" d="M256 109.1c37.4 0 70.5 12.9 96.6 37.7L387 101c41.4-38.1 93.9-61.9 144.9-61.9C415.9 22.7 358.7 0 256 0 160.4 0 76.4 43 34.7 109.1l83.2 67.9c19.5-57.2 74-100.4 138.1-100.4z"/>
</svg>